<?xml version="1.0" standalone="no"?>
<!DOCTYPE svg PUBLIC "-//W3C//DTD SVG 20010904//EN"
 "http://www.w3.org/TR/2001/REC-SVG-20010904/DTD/svg10.dtd">
<svg version="1.0" xmlns="http://www.w3.org/2000/svg"
 width="2042.000000pt" height="678.000000pt" viewBox="0 0 2042.000000 678.000000"
 preserveAspectRatio="xMidYMid meet">

<g transform="translate(0.000000,678.000000) scale(0.100000,-0.100000)"
fill="#000000" stroke="none">
<path d="M3258 5608 c-9 -7 -27 -35 -38 -63 -12 -27 -28 -65 -36 -82 -28 -64
-42 -99 -79 -188 -20 -49 -45 -108 -55 -130 -19 -42 -92 -215 -192 -455 -33
-80 -69 -165 -80 -189 -11 -24 -28 -66 -39 -94 -11 -28 -28 -69 -38 -91 -11
-23 -31 -70 -46 -106 -15 -36 -35 -83 -45 -105 -10 -22 -34 -80 -55 -130 -20
-49 -45 -108 -55 -130 -10 -22 -39 -92 -65 -155 -26 -63 -55 -133 -65 -155
-10 -22 -35 -80 -55 -130 -21 -49 -45 -108 -55 -130 -10 -22 -34 -80 -55 -130
-20 -49 -45 -108 -55 -130 -10 -22 -35 -80 -55 -130 -21 -49 -45 -108 -55
-130 -10 -22 -35 -80 -55 -130 -21 -49 -45 -108 -55 -130 -10 -22 -34 -80 -55
-130 -20 -49 -45 -108 -55 -130 -10 -22 -41 -96 -71 -165 -29 -69 -86 -191
-126 -272 -203 -407 -373 -553 -666 -575 -62 -5 -80 -10 -88 -25 -15 -27 -2
-57 29 -65 14 -3 172 2 349 12 340 19 548 18 998 -6 260 -13 285 -10 285 40 0
36 -13 41 -96 41 -35 0 -110 7 -166 15 -252 38 -401 139 -443 298 -25 97 -19
174 27 332 18 63 122 329 168 431 11 22 28 63 38 90 11 27 31 74 45 104 14 30
39 89 55 130 16 41 41 100 55 130 14 30 39 89 55 130 17 41 42 101 57 133 l27
57 835 -2 836 -3 26 -50 c14 -28 48 -98 75 -155 27 -58 82 -174 123 -259 40
-84 73 -155 73 -156 0 -2 30 -65 66 -141 36 -77 78 -164 91 -194 14 -30 50
-107 80 -170 52 -109 104 -221 123 -265 5 -11 16 -42 25 -68 60 -187 37 -284
-82 -335 -64 -27 -214 -52 -313 -52 -76 0 -81 -1 -92 -25 -10 -22 -9 -29 10
-48 l22 -21 302 17 c334 19 524 21 758 7 474 -28 520 -26 520 23 0 33 -19 47
-60 47 -63 0 -182 39 -248 82 -140 91 -255 253 -437 617 -85 171 -215 440
-215 446 0 2 -34 74 -76 161 -42 88 -93 195 -114 239 -21 44 -62 132 -93 195
-30 63 -73 156 -97 205 -23 50 -61 131 -85 180 -24 50 -59 124 -78 165 -35 76
-92 196 -184 390 -68 142 -222 467 -268 565 -21 44 -62 132 -92 195 -31 63
-72 151 -93 195 -342 728 -359 759 -390 763 -14 2 -33 -3 -42 -10z m-96 -709
c9 -15 121 -254 158 -334 12 -27 45 -97 73 -155 27 -58 62 -132 77 -165 15
-33 57 -121 93 -195 35 -74 74 -157 87 -185 12 -27 47 -102 77 -165 31 -63 72
-151 93 -195 21 -44 58 -123 83 -175 25 -52 42 -98 38 -103 -4 -4 -347 -6
-762 -5 l-754 3 2 22 c2 13 12 42 22 65 31 68 391 917 391 923 0 2 16 38 35
79 19 42 35 78 35 81 0 5 166 397 202 478 22 47 34 54 50 26z"/>
<path d="M16102 5595 c-11 -13 -25 -39 -32 -57 -7 -18 -21 -53 -32 -77 -11
-24 -28 -66 -39 -94 -11 -28 -28 -69 -38 -91 -11 -23 -49 -113 -86 -201 -37
-88 -101 -238 -141 -333 -41 -95 -74 -175 -74 -177 0 -3 -11 -28 -24 -57 -13
-29 -41 -93 -61 -143 -20 -49 -45 -108 -55 -130 -10 -22 -39 -92 -65 -155 -26
-63 -55 -133 -65 -155 -10 -22 -35 -80 -55 -130 -20 -49 -48 -115 -62 -145
-14 -30 -31 -71 -38 -90 -7 -19 -23 -57 -35 -85 -28 -62 -41 -93 -75 -175 -15
-36 -35 -83 -45 -105 -10 -22 -39 -92 -65 -155 -26 -63 -55 -133 -66 -156 -10
-22 -27 -63 -38 -91 -11 -28 -30 -72 -42 -99 -30 -67 -41 -95 -84 -199 -35
-86 -44 -108 -78 -185 -8 -19 -27 -64 -42 -100 -15 -36 -33 -78 -40 -95 -8
-16 -35 -77 -60 -135 -59 -134 -158 -324 -220 -420 -26 -41 -85 -112 -131
-158 -98 -96 -181 -142 -309 -168 -69 -15 -92 -15 -165 -5 -131 19 -196 38
-306 91 -104 50 -252 157 -353 254 -51 49 -169 183 -221 251 -14 18 -70 91
-125 161 -55 71 -121 158 -147 194 -26 36 -101 139 -168 230 -66 91 -151 208
-187 260 -37 52 -86 120 -108 150 -23 30 -81 109 -130 174 -154 207 -304 350
-425 404 -60 27 -136 52 -160 52 -35 0 -22 28 55 128 41 53 136 176 211 272
75 96 153 198 174 225 487 631 616 790 770 946 149 150 241 224 370 292 148
79 343 130 530 139 54 3 55 4 58 36 5 47 -16 51 -223 41 -238 -11 -827 -11
-1090 0 -115 5 -223 7 -238 4 -25 -5 -28 -9 -25 -42 l3 -36 80 -6 c187 -15
285 -74 285 -171 0 -49 -25 -134 -59 -205 -71 -145 -191 -321 -699 -1027 -160
-222 -196 -272 -293 -408 -57 -81 -111 -150 -119 -152 -8 -2 -145 -6 -305 -8
l-290 -3 0 815 c0 661 3 827 14 880 18 82 34 115 80 163 69 72 177 103 406
116 l110 6 3 36 c3 30 -1 37 -18 42 -12 3 -128 1 -258 -3 -292 -11 -829 -12
-1141 -1 -129 5 -242 6 -252 4 -22 -6 -33 -35 -24 -63 6 -18 15 -20 96 -20
107 0 260 -23 334 -51 59 -22 125 -85 148 -141 8 -19 19 -63 26 -99 15 -86 16
-3560 1 -3640 -29 -159 -79 -226 -194 -261 -59 -18 -221 -37 -312 -38 -96 0
-114 -8 -114 -47 0 -16 8 -27 24 -33 15 -5 171 -5 403 1 250 6 521 6 802 -1
234 -6 438 -8 453 -4 26 5 29 9 26 42 l-3 37 -130 6 c-320 15 -410 61 -463
234 -14 43 -16 176 -19 950 -2 495 -1 910 2 922 5 22 10 23 94 23 373 0 577
-116 853 -488 40 -53 75 -99 79 -102 3 -3 81 -115 175 -248 480 -691 669 -955
810 -1132 112 -141 165 -194 224 -223 44 -22 52 -22 515 -25 362 -3 533 0 744
14 294 18 642 16 1020 -6 107 -6 210 -9 228 -5 32 6 34 8 31 43 l-3 37 -65 2
c-323 11 -528 96 -605 249 -25 50 -30 73 -33 154 -4 100 5 158 45 280 26 81
25 80 71 185 17 39 51 122 77 185 26 63 54 131 62 150 9 19 21 49 28 65 7 17
22 51 34 77 12 26 21 49 21 52 0 3 11 29 24 58 13 29 54 125 91 213 37 88 72
166 77 173 8 9 188 12 837 12 454 0 831 -4 838 -8 6 -4 25 -37 41 -72 16 -36
48 -105 72 -155 23 -49 63 -133 87 -185 78 -165 119 -251 192 -404 39 -82 71
-150 71 -151 0 -1 27 -61 61 -131 112 -237 126 -269 151 -339 46 -125 53 -174
35 -236 -21 -70 -49 -96 -142 -129 -55 -20 -189 -40 -276 -40 -91 0 -99 -4
-99 -50 0 -39 29 -42 268 -28 293 17 701 17 1018 -1 138 -8 268 -11 288 -7 36
7 37 9 34 44 l-3 37 -60 6 c-177 18 -298 94 -432 274 -28 38 -58 80 -65 95 -7
14 -28 49 -46 77 -47 75 -227 438 -349 703 -14 30 -63 133 -109 229 -46 95
-84 175 -84 176 0 2 -32 70 -71 152 -39 81 -86 180 -104 218 -18 39 -58 124
-90 190 -89 187 -154 322 -197 415 -22 47 -60 126 -83 175 -24 50 -59 124 -78
165 -19 41 -59 127 -90 190 -30 63 -73 153 -95 200 -22 47 -72 152 -111 234
-39 82 -71 150 -71 151 0 2 -34 74 -76 161 -42 88 -93 195 -114 239 -116 248
-153 322 -167 338 -23 24 -58 21 -81 -8z m-70 -727 c14 -29 35 -73 46 -98 11
-25 48 -103 82 -174 60 -126 100 -211 165 -351 18 -38 55 -117 82 -175 110
-230 146 -308 173 -365 37 -80 90 -194 161 -344 33 -68 59 -127 59 -132 0 -10
-1513 -13 -1523 -3 -3 3 15 54 40 112 25 59 65 155 89 213 24 59 57 136 74
173 16 37 30 68 30 70 0 4 174 415 195 461 7 17 27 65 44 107 17 42 39 96 50
120 36 78 171 399 171 407 0 8 22 31 30 31 3 0 18 -24 32 -52z"/>
<path d="M7475 5553 c-27 -2 -151 -10 -275 -18 -238 -16 -616 -18 -989 -6
-124 4 -237 5 -252 3 -31 -5 -44 -34 -28 -64 8 -15 22 -18 94 -18 102 0 258
-24 327 -50 102 -38 141 -90 173 -224 13 -59 15 -276 15 -1849 0 -1707 -1
-1785 -19 -1852 -10 -38 -23 -81 -29 -95 -15 -36 -70 -86 -122 -109 -61 -27
-219 -51 -335 -51 -85 0 -95 -2 -105 -20 -15 -29 -3 -59 26 -66 13 -4 204 -1
423 5 295 8 533 8 909 0 281 -6 522 -9 536 -5 29 7 41 37 26 66 -10 18 -20 20
-125 20 -63 0 -161 5 -217 11 -286 29 -406 82 -458 201 -51 118 -50 69 -50
1924 0 1123 4 1751 10 1790 34 197 91 257 271 289 113 20 381 20 490 0 554
-102 879 -538 879 -1179 0 -78 -4 -167 -10 -197 -5 -30 -14 -83 -20 -119 -35
-199 -134 -392 -279 -543 -141 -147 -311 -238 -551 -294 -88 -20 -390 -24
-453 -5 -47 13 -65 7 -74 -26 -10 -40 9 -56 88 -74 88 -19 386 -24 488 -7 387
64 652 177 891 381 291 249 439 587 440 1005 0 316 -68 538 -223 729 -169 206
-399 332 -752 410 -156 34 -494 52 -720 37z"/>
</g>
</svg>
